<mxfile host="app.diagrams.net" modified="2023-05-24T16:02:43.761Z" agent="Mozilla/5.0 (X11; Ubuntu; Linux x86_64; rv:109.0) Gecko/20100101 Firefox/113.0" etag="42VjNTo6_3gClLk1MUHy" version="21.3.3" type="github">
  <diagram name="PÃ¡gina-1" id="s3_82P3IpkBIbqO1G4HA">
    <mxGraphModel dx="1434" dy="773" grid="1" gridSize="10" guides="1" tooltips="1" connect="1" arrows="1" fold="1" page="1" pageScale="1" pageWidth="1169" pageHeight="827" math="0" shadow="0">
      <root>
        <mxCell id="0" />
        <mxCell id="1" parent="0" />
      </root>
    </mxGraphModel>
  </diagram>
</mxfile>
